# xmcd
#
# Track frame offsets:
#	182
#	15637
#	31550
#	52780
#	74225
#	95622
#	113877
#	136995
#	154700
#	171977
#
# Disc length: 2503 seconds
#
# Revision: 0
# Processed by: cddbd v1.4PL0 Copyright (c) Steve Scherf et al.
# Submitted via: dBpowerAMP V4.0
#
DISCID=7e09c50a
DTITLE=Various Artist - Christmas Magic Ol' Country Christmas
DYEAR=1900
DGENRE=Country
TTITLE0=Go Tell it  On The Mountain
TTITLE1=Jingle Bells
TTITLE2=O Little Town Of Bethleham
TTITLE3=Good King Wenceslas
TTITLE4=Twelve Days Of Christmas
TTITLE5=Deck The Halls
TTITLE6=Silent Night
TTITLE7=Joy To The World
TTITLE8=Away In The Manger
TTITLE9=O Christmas Tree
EXTD=
EXTT0=
EXTT1=
EXTT2=
EXTT3=
EXTT4=
EXTT5=
EXTT6=
EXTT7=
EXTT8=
EXTT9=
PLAYORDER=
